# xmcd CD database file
# Copyright (C) 1997 Ti Kan
# 
# Track frame offsets:
#     182
#     8567
#     23290
#     38377
#     51970
#     79127
#     92587
#     116265
#     143102
#     162887
#     183452
#     203165
#     235765
#     248142
#     271057
# 
# Disc length: 3772 seconds
# 
# Revision: 1
# Processed by: cddbd v1.4b41PL1 Copyright (c) Steve Scherf et al.
# Submitted via: DiscPlay 4.0.4
# 
DISCID=a90eba0f
DTITLE=Lightnin' Hopkins - Nothin' But The Blues - Golden Classics Part 4
DYEAR=1900
DGENRE=
TTITLE0=So Long Baby
TTITLE1=Santa Fe Blues
TTITLE2=Mojo Hand
TTITLE3=Little Wail
TTITLE4=Cotton
TTITLE5=Take Me Back
TTITLE6=Nothin' But The Blues
TTITLE7=Hurricane Betsy
TTITLE8=Guitar Lightnin'
TTITLE9=Woke Up This Morning
TTITLE10=Shake Yourself
TTITLE11=Big Car Blues
TTITLE12=Shaggy Dog
TTITLE13=I'll Be Gone
TTITLE14=Talk Of The Town
EXTD=
EXTT0=
EXTT1=
EXTT2=
EXTT3=
EXTT4=
EXTT5=
EXTT6=
EXTT7=
EXTT8=
EXTT9=
EXTT10=
EXTT11=
EXTT12=
EXTT13=
EXTT14=
PLAYORDER=
